<?xml version="1.0" encoding="UTF-8"?>
<!DOCTYPE svg PUBLIC "-//W3C//DTD SVG 1.1//EN" "http://www.w3.org/Graphics/SVG/1.1/DTD/svg11.dtd">
<!-- Creator: CorelDRAW 2020 (64-Bit Not for commercial use) -->
<svg xmlns="http://www.w3.org/2000/svg" xml:space="preserve" width="3.5in" height="2in" version="1.1" style="shape-rendering:geometricPrecision; text-rendering:geometricPrecision; image-rendering:optimizeQuality; fill-rule:evenodd; clip-rule:evenodd"
viewBox="0 0 3500 2000"
 xmlns:xlink="http://www.w3.org/1999/xlink"
 xmlns:xodm="http://www.corel.com/coreldraw/odm/2003">
 <defs>
  <style type="text/css">
   <![CDATA[
    .fil1 {fill:#F49F33}
    .fil0 {fill:#7A7A7A}
    .fil4 {fill:#FEFEFE;fill-rule:nonzero}
    .fil3 {fill:#F49F33;fill-rule:nonzero}
    .fil2 {fill:#F3A033;fill-rule:nonzero}
    .fil6 {fill:#9FCC47;fill-rule:nonzero}
    .fil7 {fill:#4D61AB;fill-rule:nonzero}
    .fil5 {fill:#7A7A7A;fill-rule:nonzero}
   ]]>
  </style>
 </defs>
 <g id="Layer_x0020_1">
  <metadata id="CorelCorpID_0Corel-Layer"/>
  <rect class="fil0" x="486.04" y="674.82" width="1672.75" height="316.84"/>
  <g>
   <polygon class="fil1" points="1097.47,688.24 1105.34,701.86 1113.2,715.49 1105.34,729.11 1097.47,742.74 1081.74,742.74 1066,742.74 1058.13,729.11 1050.27,715.49 1058.13,701.86 1066,688.24 1081.74,688.24 "/>
   <path id="1" class="fil2" d="M1104.18 705.1l-7.87 -13.63 2.32 -6.47 7.87 13.63 0 0 -2.32 6.47zm7.87 13.63l-7.87 -13.63 2.32 -6.47 7.87 13.63 -1.7 5.94 -0.62 0.53zm2.32 -6.47l0.87 1.5 -2.57 4.44 1.7 -5.94zm-8.49 14.16l7.87 -13.63 -1.08 5.41 -7.87 13.63 0 0 1.08 -5.41zm-7.87 13.63l7.87 -13.63 -1.08 5.41 -7.87 13.63 -0.53 0.59 1.61 -6zm-1.08 5.41l-0.34 0.59 -0.19 0 0.53 -0.59zm-14.13 -6l15.74 0 -2.13 6.6 -15.74 0 0 0 2.13 -6.6zm-15.73 0l15.73 0 -2.13 6.6 -15.73 0 -0.09 -0.06 2.23 -6.54zm-2.13 6.6l-0.06 0 -0.04 -0.06 0.09 0.06zm-5.64 -20.16l7.87 13.63 -2.32 6.47 -7.87 -13.63 0 0 2.32 -6.47zm-7.87 -13.63l7.87 13.63 -2.32 6.47 -7.87 -13.63 1.7 -5.94 0.62 -0.53zm-2.32 6.47l-0.87 -1.5 2.57 -4.44 -1.7 5.94zm8.49 -14.16l-7.87 13.63 1.08 -5.41 7.87 -13.63 0 0 -1.08 5.41zm7.87 -13.63l-7.87 13.63 1.08 -5.41 7.87 -13.63 0.53 -0.59 -1.61 6zm1.08 -5.41l0.34 -0.59 0.19 0 -0.53 0.59zm14.13 6l-15.74 0 2.13 -6.6 15.74 0 0 0 -2.13 6.6zm15.73 0l-15.73 0 2.13 -6.6 15.73 0 0.09 0.06 -2.23 6.54zm2.13 -6.6l0.06 0 0.04 0.06 -0.09 -0.06z"/>
  </g>
  <path class="fil3" d="M589.26 918.86c69.67,0 120,-42.33 120,-111.33 0,-69 -50.33,-111 -120.33,-111l-93.33 0 0 222.33 93.67 0z"/>
  <path class="fil4" d="M2064.26 922.86c55.33,0 88,-39.33 88,-84.67 0,-45.33 -32.67,-84.33 -88,-84.33 -54.67,0 -87.67,39 -87.67,84.33 0,45.33 33,84.67 87.67,84.67z"/>
  <path class="fil4" d="M1764.93 922.86c40.33,0 70.67,-30 70.67,-84.67 0,-54.33 -30.33,-84.33 -70.67,-84.33 -18.33,0 -35,7.33 -47.67,22.67l0 -18.67 -51.33 0 0 222.33 51.33 0 0 -80.33c13.33,16 29.67,23 47.67,23z"/>
  <path class="fil5" d="M2064.26 877.53c-22.33,0 -34.67,-17.67 -34.67,-39.33 0,-21.33 12.33,-39 34.67,-39 22.67,0 35.33,17.67 35.33,39 0,21.67 -12.67,39.33 -35.33,39.33z"/>
  <path class="fil4" d="M1913.59 918.86l0 -102.67c6.67,-9 24.33,-14.67 37.67,-14.67 5.33,0 9.67,0.67 12.67,1.33l0 -49.33c-19.33,0 -39.67,11 -50.33,24l0 -19.67 -51.33 0 0 161 51.33 0z"/>
  <path class="fil6" d="M1601.93 922.86c17,0 31.33,-14.33 31.33,-31.33 0,-17 -14.33,-31.33 -31.33,-31.33 -17,0 -31.33,14.33 -31.33,31.33 0,17 14.33,31.33 31.33,31.33z"/>
  <polygon class="fil7" points="1520.59,918.86 1520.59,746.53 1582.59,746.53 1582.59,696.53 1400.93,696.53 1400.93,746.53 1463.26,746.53 1463.26,918.86 "/>
  <polygon class="fil7" points="1373.59,918.86 1373.59,696.53 1316.26,696.53 1316.26,918.86 "/>
  <polygon class="fil6" points="1298.26,918.86 1243.26,836.2 1294.59,757.86 1238.26,757.86 1210.93,801.53 1183.26,757.86 1126.93,757.86 1178.59,836.2 1123.59,918.86 1179.59,918.86 1210.93,870.2 1241.93,918.86 "/>
  <polygon class="fil6" points="1106.93,918.86 1106.93,757.86 1055.59,757.86 1055.59,918.86 "/>
  <polygon class="fil6" points="920.26,918.86 920.26,831.2 1023.59,831.2 1023.59,781.2 920.26,781.2 920.26,746.53 1025.93,746.53 1025.93,696.53 862.93,696.53 862.93,918.86 "/>
  <path class="fil3" d="M787.93 918.86l0 -102.67c6.67,-9 24.33,-14.67 37.67,-14.67 5.33,0 9.67,0.67 12.67,1.33l0 -49.33c-19.33,0 -39.67,11 -50.33,24l0 -19.67 -51.33 0 0 161 51.33 0z"/>
  <path class="fil5" d="M588.93 868.86l-36 0 0 -122.33 36.33 0c40.67,0 61.33,26.67 61.33,61 0,33 -22.67,61.33 -61.67,61.33z"/>
  <path class="fil5" d="M1747.93 877.53c-11,0 -24.33,-6.33 -30.67,-14.67l0 -49c6.33,-8.67 19.67,-14.67 30.67,-14.67 20,0 35.33,15 35.33,39 0,24.33 -15.33,39.33 -35.33,39.33z"/>
  <g>
   <rect class="fil1" x="1580.71" y="886.7" width="42.43" height="9.66"/>
   <rect class="fil1" transform="matrix(2.64845E-14 -1 0.831525 2.20226E-14 1597.1 912.75)" width="42.43" height="11.61"/>
  </g>
 </g>
</svg>
